<svg _ngcontent-pfl-c95="" version="1.1" id="Layer_1" xmlns="http://www.w3.org/2000/svg" xmlns:xlink="http://www.w3.org/1999/xlink" x="0px" y="0px" viewBox="0 0 1872 530" enable-background="new 0 0 1872 530" xml:space="preserve"><g _ngcontent-pfl-c95=""><path _ngcontent-pfl-c95="" fill-rule="evenodd" clip-rule="evenodd" fill="#E6E7E8" d="M489.1,14.1c23.2,0,41.9,18.8,41.9,41.9
c0,23.2-18.8,41.9-41.9,41.9c-23.2,0-41.9-18.8-41.9-41.9C447.1,32.9,465.9,14.1,489.1,14.1L489.1,14.1z"></path><path _ngcontent-pfl-c95="" fill-rule="evenodd" clip-rule="evenodd" fill="#F4EC48" d="M305.6,228.5l269.6,0.6C574.9,378,453.9,498.4,305,498.1
C156.1,497.7,35.6,376.7,36,227.8L305.6,228.5L305.6,228.5z"></path><path _ngcontent-pfl-c95="" fill-rule="evenodd" clip-rule="evenodd" fill="#BCBEC0" d="M489.1,26.3c16.4,0,29.8,13.3,29.8,29.8
c0,16.4-13.3,29.8-29.8,29.8c-16.4,0-29.8-13.3-29.8-29.8C459.3,39.6,472.6,26.3,489.1,26.3L489.1,26.3z"></path><polygon _ngcontent-pfl-c95="" fill-rule="evenodd" clip-rule="evenodd" fill="#F4984F" points="572.8,200.3 572.8,67.2 699.1,130.6 572.8,200.3 	"></polygon><path _ngcontent-pfl-c95="" fill-rule="evenodd" clip-rule="evenodd" fill="#A7A9AC" d="M954.4,337.3c0-17.9-3.2-35-9-50.6c-4.2-11.7-10.3-23-17.6-32.8
c-11-14.9-25.2-27.4-42.1-35.9c-16.6-8.6-36-13.5-56.5-13.5h-93.2c-1.2,0-2.4-0.2-3.7-0.2c-13.7,0-24.7,11-24.7,24.7
c0,0.2,0,0.2,0,0.2v0.2v215.7c0,13.7,11,24.7,24.7,24.7h96.8C901.9,469.8,954.2,411.1,954.4,337.3L954.4,337.3z M829.2,420.2h-72.1
V254.1h72.1c11.5,0,21.5,2.2,30.6,6.4c6.8,2.9,13,7.1,18.3,12c8.1,7.3,14.7,16.6,19.3,27.6c4.6,11,7.3,23.5,7.3,37.2
C904.8,382.3,875.7,420.2,829.2,420.2L829.2,420.2z M1198,203c-13.7,0-24.9,11-24.9,24.7c0,0.2,0.2,0.5,0.2,0.7v140.9
c0,0.5-0.2,1-0.2,1.5c0,30.3-32,55.8-65.8,55.8s-65.5-25.7-65.5-55.8v-1.5V228.4v-0.7c0-13.7-11-24.7-24.7-24.7
c-13.7,0-24.7,11-24.7,24.7v141.6v1.5c0,58.4,54.3,105.2,114.9,105.2c60.4,0,115.4-46.5,115.4-105.2v-1.5V227.7
C1222.7,214,1211.7,203,1198,203L1198,203z M1499.1,418c0-0.5-0.2-0.7-0.2-1.2v-1.2c0-0.5-0.2-0.7-0.2-1.2c0-0.5-0.2-0.7-0.2-1.2
c0-0.2-0.2-0.7-0.2-1.2c-0.2-0.2-0.2-0.7-0.5-1c0-0.5-0.2-0.7-0.2-1.2c-0.2-0.5-0.5-0.7-0.5-1.2c-0.2-0.2-0.5-0.7-0.5-1l-0.7-1
c-0.2-0.5-0.5-0.7-0.5-1.2c-0.2-0.2-0.5-0.5-0.7-1c-0.2-0.2-0.5-0.5-0.7-1c-0.2-0.2-0.7-0.5-1-1c0-0.2-0.2-0.2-0.5-0.5
c0,0,0-0.2-0.2-0.2c-0.2-0.5-0.7-0.7-1-1l-0.7-0.7c-0.5-0.2-0.7-0.7-1.2-1c-0.2-0.2-0.5-0.5-0.7-0.5c-0.5-0.5-1-0.5-1.2-0.7
c-0.5-0.2-0.7-0.5-1-0.7l-1.7-0.7c-0.2,0-0.2-0.2-0.5-0.2c-1.5-0.7-3.2-1.2-4.6-1.5h-0.5c-0.7-0.2-1.2-0.2-2-0.5h-2.4
c0,0,0,0-0.2,0h-2.2c-0.5,0.2-0.7,0.2-1,0.2c-0.5,0-1,0-1.5,0.2c-0.5,0-0.7,0-1,0.2c-0.5,0-1,0.2-1.5,0.2c-0.2,0.2-0.5,0.2-1,0.5
c-0.2,0-0.7,0.2-1.2,0.2c-0.2,0.2-0.5,0.5-1,0.5c-0.2,0.2-0.7,0.5-1.2,0.5c-0.2,0.2-0.5,0.5-0.7,0.7l-1.2,0.5
c-0.2,0.2-0.5,0.5-1,0.7c-0.2,0.2-0.5,0.5-1,0.7c-0.2,0.2-0.5,0.5-1,0.7c0,0.2-0.2,0.5-0.5,0.5c-7.8,7.3-16.9,13.2-27.1,17.4
c-10,4.2-21,6.4-32.5,6.4c-12.2,0-23.5-2.4-34-6.8c-15.6-6.6-28.9-17.6-38.4-31.5c-4.6-7.1-8.3-14.7-11-23
c-2.4-8.1-3.9-16.9-3.9-25.9c0-12,2.4-23.5,6.8-34c6.6-15.7,17.9-28.9,31.8-38.4c6.8-4.6,14.4-8.3,22.7-10.8
c8.1-2.7,16.9-4.2,25.9-4.2c11.7,0,23,2.4,33.3,6.6c10,4.2,19.3,10.3,27.1,17.9c0.2,0.2,0.5,0.5,0.7,0.5c0.2,0.5,0.7,0.7,1,1
c0.2,0.2,0.7,0.5,1,0.7l1,0.7c0.2,0.2,0.7,0.5,1,0.5c0.5,0.2,0.7,0.5,1,0.7l1.2,0.5c0.2,0.2,0.7,0.2,1,0.5l1.2,0.5
c0.5,0,0.7,0.2,1.2,0.2c0.2,0.2,0.7,0.2,1,0.2c0.5,0.2,0.7,0.2,1.2,0.5h1.5c0.2,0.2,0.5,0.2,1,0.2h2.4h2.4c0.5,0,1-0.2,1.2-0.2
c0.5,0,0.7,0,1.2-0.2c0.5,0,1-0.2,1.5-0.2c0.2,0,0.5-0.2,0.7-0.2c0.5-0.2,1-0.2,1.5-0.5c0.5-0.2,0.7-0.2,1-0.2
c0.5-0.2,1-0.5,1.2-0.7l1.2-0.5c0.5-0.5,1.2-0.7,1.7-1.2c0.2-0.2,0.5-0.2,1-0.5c0.2-0.2,0.7-0.7,1-1l0.7-0.7c0.5-0.2,0.7-0.5,1.2-1
c0,0,0,0,0.2-0.2l0.5-0.5c0.2-0.5,0.5-0.7,1-1c0.2-0.5,0.5-0.7,0.5-1c0.2-0.5,0.7-0.7,0.7-1l0.7-1.2c0.2-0.2,0.5-0.7,0.5-1l0.7-1.2
c0-0.2,0.2-0.7,0.5-1c0-0.5,0.2-0.7,0.2-1.2c0.2-0.2,0.2-0.7,0.5-1c0-0.5,0.2-1,0.2-1.2c0-0.5,0.2-0.7,0.2-1.2
c0-0.5,0.2-0.7,0.2-1.2c0-0.5,0-0.7,0.2-1.2c0-0.5,0-1,0-1.5v-0.7v-0.2v-1.5c0-0.2,0-0.7-0.2-1v-1.2c-0.2-0.5-0.2-0.7-0.2-1.2
l-0.2-1c-0.2-0.5-0.2-1-0.5-1.2c0-0.5-0.2-0.7-0.2-1.2c-0.2-0.2-0.2-0.7-0.5-1.2c-0.2-0.2-0.5-0.7-0.5-1c-0.2-0.5-0.5-0.7-0.5-1
c-0.2-0.5-0.5-1-0.7-1.2c-0.2-0.2-0.5-0.7-0.5-1c-0.2-0.2-0.5-0.5-0.7-1c-0.2-0.2-0.5-0.7-1-1c0-0.2-0.2-0.5-0.5-0.7
c-0.5-0.2-0.7-0.7-1-1c-0.2,0-0.2-0.2-0.2-0.2c-12.2-11.7-26.9-21.3-42.8-27.9c-16.1-6.6-33.7-10.3-52.1-10.3
c-18.8,0-36.9,3.7-53.3,10.8c-24.5,10.3-45.5,27.6-60.2,49.4c-7.3,11-13.2,23-17.1,36c-4.2,12.7-6.1,26.4-6.1,40.6
c0,18.8,3.7,36.9,10.8,53.3c10.3,24.7,27.6,45.5,49.4,60.2c11,7.3,23,13.2,35.9,17.1c12.7,4.2,26.4,6.4,40.6,6.4
c18.1,0,35.5-3.7,51.1-10c15.9-6.4,30.3-15.7,42.6-27.1c0,0,0-0.2,0.2-0.2c0.2-0.2,0.5-0.7,1-1l0.7-0.7c0.2-0.5,0.5-0.7,0.7-1
c0.2-0.5,0.5-0.7,0.7-1c0.2-0.5,0.5-0.7,0.5-1l0.7-1.2c0.2-0.2,0.5-0.5,0.5-1c0.2-0.2,0.5-0.7,0.5-1c0.2-0.5,0.5-1,0.5-1.2l0.5-1.2
c0-0.2,0.2-0.7,0.2-1.2c0.2-0.2,0.2-0.7,0.2-1c0.2-0.5,0.2-0.7,0.2-1.2c0.2-0.5,0.2-0.7,0.2-1.2v-1.2c0.2-0.5,0.2-0.7,0.2-1.2
c0-0.2,0-0.2,0-0.5V418L1499.1,418z M1749,429.2l-88.5-107.9l72.1-74.8c0.2-0.2,0.5-0.5,0.5-0.7c0.5-0.2,0.7-0.5,1-1
c0.2-0.2,0.5-0.5,0.7-1c0.2-0.2,0.5-0.5,0.7-1l0.7-1c0-0.5,0.2-0.7,0.5-1l0.5-1.2c0.2-0.2,0.2-0.7,0.5-1l0.5-1.2
c0-0.5,0.2-0.7,0.2-1.2c0.2-0.2,0.2-0.7,0.5-1.2c0-0.2,0-0.7,0.2-1v-1.2c0.2-0.5,0.2-1,0.2-1.2v-1.5c0-0.2,0-0.5,0-0.7v-0.2
c0-0.5,0-1,0-1.5v-1c0-0.5-0.2-1-0.2-1.2c0-0.5,0-1-0.2-1.2c0-0.5,0-0.7-0.2-1c0-0.5-0.2-1-0.2-1.5c-0.2-0.2-0.2-0.5-0.5-1
c0-0.5-0.2-0.7-0.5-1.2c0-0.5-0.2-0.7-0.5-1.2c-0.2-0.2-0.2-0.7-0.5-1c-0.2-0.2-0.5-0.7-0.7-1.2c0-0.2-0.2-0.5-0.5-0.7
c-0.2-0.5-0.5-0.7-0.7-1c-0.2-0.2-0.5-0.7-0.7-1l-0.7-0.7c-0.2-0.5-0.7-0.7-1-1.2h-0.2c0-0.2-0.2-0.5-0.5-0.7
c-0.5-0.2-0.7-0.5-1-0.7c-0.5-0.2-0.7-0.5-1-0.7c-0.5-0.2-0.7-0.5-1-0.7l-1.2-0.7c-0.2,0-0.5-0.2-1-0.5c-0.2-0.2-0.7-0.2-1-0.5
c-0.5-0.2-0.7-0.5-1.2-0.5c-0.2-0.2-0.7-0.2-1-0.5c-0.5,0-0.7-0.2-1.2-0.2c-0.2-0.2-0.7-0.2-1.2-0.5c-0.2,0-0.7,0-1-0.2
c-0.5,0-1,0-1.5-0.2h-1c-0.7,0-1.7-0.2-2.4-0.2l-2.4,0.2c-0.5,0-1,0-1.5,0.2h-1c-0.5,0.2-1,0.2-1.5,0.5c-0.2,0-0.5,0-1,0.2
c-0.5,0-1,0.2-1.2,0.5c-0.5,0-0.7,0.2-1,0.2c-0.5,0.2-1,0.5-1.2,0.7c-0.5,0-0.7,0.2-1,0.5c-0.7,0.2-1.5,0.7-2.2,1.2
c-0.2,0-0.5,0.2-0.7,0.5c-0.2,0.2-0.7,0.5-1.2,1c-0.2,0.2-0.5,0.2-0.5,0.5c-0.5,0.5-1,0.7-1.2,1.2h-0.2l-109.6,113.7V228
c-0.7-13-11.5-23.5-24.7-23.5c-13.2,0-24,10.5-24.7,23.5v217.2c0,13.7,11,24.7,24.7,24.7c13.7,0,24.7-11,24.7-24.7v-47.9l38.4-39.9
l84.9,103.4c4.6,5.6,11.5,9,19.3,9c13.7,0,24.7-11,24.7-24.7C1754.6,439,1752.4,433.6,1749,429.2L1749,429.2z"></path><path _ngcontent-pfl-c95="" fill-rule="evenodd" clip-rule="evenodd" fill="#F4EC48" d="M1825.8,409c16.4,0,29.8,13.3,29.8,29.8
c0,16.4-13.3,29.8-29.8,29.8c-16.5,0-29.8-13.3-29.8-29.8C1796.1,422.4,1809.4,409,1825.8,409L1825.8,409z"></path></g></svg>