<svg width="290" height="40" viewBox="0 0 290 40" fill="none" xmlns="http://www.w3.org/2000/svg">
<g clip-path="url(#clip0_1_4093)">
<path d="M157.077 39.4098L164.32 12.3167H177.947C182.668 12.3167 186.048 13.0141 188.033 14.3017C191.467 16.6086 192.432 20.5251 190.93 26.1583C189.482 31.5233 186.531 35.3324 182.024 37.5321C180.361 38.3368 178.43 38.8733 176.284 39.1416C174.996 39.3025 173.118 39.3562 170.651 39.3562L157.077 39.4098ZM175.264 18.3254H170.329L166.251 33.562H171.187C174.299 33.562 176.767 33.0792 178.537 32.1671C180.79 30.9868 182.346 28.9481 183.097 26.051C184.439 20.9006 181.863 18.3254 175.264 18.3254Z" fill="#DB620A"/>
<path d="M190.394 39.4635L195.437 20.5788H202.626L197.583 39.4635H190.394ZM195.919 17.6817L197.368 12.3704H205.147L203.752 17.6817H195.919Z" fill="#DB620A"/>
<path d="M220.009 26.5875C219.257 26.4802 218.56 26.4265 217.809 26.4265C214 26.4265 211.478 28.5725 210.298 32.9182L208.527 39.4635H201.338L205.201 25.0316C205.684 23.3148 206.006 21.8126 206.167 20.5787H213.195C213.088 21.4371 212.873 22.4028 212.551 23.4221L212.337 24.2805C214.483 21.6517 217.326 20.3104 220.867 20.3641H221.618L220.009 26.5875Z" fill="#DB620A"/>
<path d="M242.273 33.4548C240.771 37.8004 236.425 39.9464 229.344 39.9464C225.856 39.9464 223.227 39.249 221.564 37.8541C219.633 36.1909 219.096 33.723 219.955 30.3431C220.92 26.8558 222.798 24.1733 225.695 22.4565C228.271 20.9007 231.382 20.0959 235.03 20.0959C242.488 20.0959 245.224 23.7441 243.292 31.0405L243.132 31.6843H226.822C226.5 33.0792 226.715 34.1522 227.412 34.957C228.11 35.7081 229.183 36.0836 230.577 36.0836C232.992 36.0836 234.548 35.2252 235.191 33.5084L242.273 33.4548ZM227.841 27.8215H237.069C237.391 26.5876 237.176 25.6219 236.479 24.9244C235.835 24.3343 234.869 24.0124 233.582 24.0124C230.631 24.0124 228.753 25.3 227.841 27.8215Z" fill="#DB620A"/>
<path d="M261.909 27.285C262.123 25.2463 261.05 24.2269 258.582 24.1733C256.919 24.1733 255.578 24.8171 254.398 26.051C253.432 27.124 252.735 28.5189 252.252 30.2357C251.286 33.8303 252.359 35.6007 255.471 35.6007C258.207 35.6007 259.924 34.4204 260.621 32.1135H268.025C266.362 37.3175 261.748 39.8927 254.237 39.8927C250.696 39.8927 248.067 39.1952 246.404 37.8003C244.419 36.1908 243.882 33.6693 244.794 30.2894C245.707 26.8021 247.638 24.1733 250.535 22.4028C253.11 20.847 256.222 20.0422 259.87 20.0422C266.791 20.0422 269.903 22.4565 269.098 27.2313L261.909 27.285Z" fill="#DB620A"/>
<path d="M284.442 14.0334L282.671 20.686H288.573L287.392 25.139H281.491L279.506 32.489C279.238 33.5084 279.291 34.2058 279.667 34.5813C279.989 34.9032 280.686 35.0642 281.759 35.0642C282.457 35.0642 283.476 35.0105 284.764 34.9032L283.53 39.5171C281.867 39.839 280.257 40 278.755 40C273.229 40 271.029 38.0149 272.102 33.9912L274.463 25.139H270.117L271.297 20.686H275.643L276.716 16.6623L280.847 15.4283C281.974 15.1064 283.154 14.6236 284.442 14.0334Z" fill="#DB620A"/>
<path d="M54.981 35.9763C57.288 38.3369 60.9898 39.5172 66.2475 39.5172C71.6662 39.5172 75.9581 38.6588 79.1235 36.9957C82.2888 35.2789 84.5421 32.7037 85.8297 29.1628H75.9045C75.207 30.7186 74.2414 31.9526 73.0074 32.7573C71.7198 33.5621 70.2176 33.9913 68.4472 33.9913C66.0329 33.9913 64.3698 33.2938 63.4577 31.8453C62.5457 30.4504 62.4384 28.4117 63.1358 25.7292C63.8869 22.993 65.0672 20.847 66.784 19.3985C68.5008 17.8963 70.5932 17.1452 73.0074 17.1452C74.5096 17.1452 75.6362 17.4671 76.3873 18.1109C77.0848 18.7547 77.4067 19.774 77.2994 21.0616H87.2246C87.8684 17.8963 87.1173 15.5357 84.9713 13.9262C82.8253 12.3167 79.3381 11.512 74.5096 11.512C68.93 11.512 64.3161 12.7459 60.6143 15.2675C56.9124 17.789 54.4445 21.3835 53.2106 25.9974C52.1376 30.2894 52.7278 33.6157 54.981 35.9763Z" fill="#053C6D"/>
<path d="M46.8265 39.4099L54.0692 12.3704H44.4659L37.2231 39.4099H46.8265Z" fill="#053C6D"/>
<path d="M103.535 35.9763C105.841 38.3369 109.543 39.5172 114.801 39.5172C120.22 39.5172 124.512 38.6588 127.677 36.9957C130.842 35.2789 133.096 32.7037 134.383 29.1628H124.458C123.761 30.7186 122.795 31.9526 121.561 32.7573C120.273 33.5621 118.771 33.9913 117.001 33.9913C114.586 33.9913 112.923 33.2938 112.011 31.8453C111.099 30.4504 110.992 28.4117 111.689 25.7292C112.44 22.993 113.674 20.847 115.337 19.3985C117.054 17.8963 119.147 17.1452 121.561 17.1452C123.063 17.1452 124.19 17.4671 124.941 18.1109C125.638 18.7547 125.96 19.774 125.853 21.0616H135.778C136.422 17.8963 135.671 15.5357 133.525 13.9262C131.379 12.3167 127.892 11.512 123.063 11.512C117.483 11.512 112.87 12.7459 109.168 15.2675C105.466 17.789 102.998 21.3835 101.764 25.9974C100.691 30.2894 101.228 33.6157 103.535 35.9763Z" fill="#053C6D"/>
<path d="M143.879 39.4099L151.122 12.3704H141.519L134.276 39.4099H143.879Z" fill="#053C6D"/>
<path d="M95.326 39.4099L102.622 12.3704H93.019L85.7227 39.4099H95.326Z" fill="#053C6D"/>
<path fill-rule="evenodd" clip-rule="evenodd" d="M10.9346 8.56109C16.7288 3.0888 23.0595 0.0307617 28.2635 0.0307617C31.2143 0.0307617 33.8968 1.10376 35.5063 3.4107C39.9592 9.63409 36.0964 22.0272 26.9223 31.094C25.1519 32.8645 23.3814 34.2594 21.45 35.547C19.2504 36.7809 14.9584 40.1609 8.57405 39.6244C5.89155 39.4634 3.85286 38.2295 2.35066 36.2444C-2.10228 30.021 1.76051 17.5743 10.9346 8.56109Z" fill="white"/>
<path fill-rule="evenodd" clip-rule="evenodd" d="M27.9417 3.57169C28.961 4.64469 28.3708 6.95163 26.4395 8.72208C24.669 10.4925 22.3084 11.19 21.2891 10.117C20.2697 9.04398 20.8599 6.73703 22.6303 4.96658C24.5081 3.03519 26.8687 2.49869 27.9417 3.57169ZM10.9346 8.56113C1.76051 17.628 -2.10228 30.0211 2.35066 36.2445C3.85286 38.1759 5.89155 39.4635 8.57405 39.6244C10.3445 39.7854 11.8467 37.693 13.027 35.0105C14.2073 32.328 14.9584 29.6992 15.5485 27.3922C16.4069 23.6904 16.4069 20.8469 15.9777 20.3104C15.2266 19.3984 13.6171 19.613 11.6857 20.686C10.8273 21.2225 9.5934 20.8469 11.0956 19.0765C12.4368 17.467 18.1774 13.2287 20.1088 12.6922C22.4694 11.9947 24.9909 12.8531 24.0789 15.3747C23.4887 17.1451 15.6558 37.7467 21.3964 35.6007C23.3278 34.3667 25.0982 32.9182 26.8687 31.1477C36.0428 22.0809 39.8519 9.68777 35.4526 3.46439C33.8431 1.15744 31.1606 0.0844465 28.2099 0.0844465C23.0595 0.0307966 16.6752 3.03519 10.9346 8.56113Z" fill="#DB620A"/>
<path fill-rule="evenodd" clip-rule="evenodd" d="M27.9414 3.57174C28.9608 4.64473 28.3706 6.95168 26.4392 8.72213C24.6688 10.4926 22.3082 11.19 21.2888 10.117C20.2695 9.04402 20.8596 6.73708 22.6301 4.96663C24.5078 3.03524 26.8684 2.49874 27.9414 3.57174ZM16.9968 3.78634C15.9775 4.69838 14.9045 5.39583 13.8851 6.46883C5.89132 14.2481 2.67232 25.0853 6.64241 30.6113C8.14461 32.7573 10.6662 33.6157 13.6169 33.6157C14.5289 31.3087 15.0654 29.3773 15.5483 27.3923C16.4067 23.6904 16.4067 20.847 15.9775 20.3105C15.2264 19.3984 13.6169 19.613 11.6855 20.686C10.8271 21.2225 9.59316 20.847 11.0954 19.0765C12.4366 17.4671 18.1771 13.2287 20.1085 12.6922C22.4691 11.9948 24.9907 12.8532 24.0786 15.3747C23.6494 16.6087 19.7866 26.7485 19.3574 32.2208C22.4691 30.9868 25.5808 28.8408 28.5316 25.9974C32.9845 21.759 35.9352 16.7696 37.1155 12.1557C37.5447 8.77577 36.9546 5.77138 35.506 3.46444C31.9115 -1.36405 24.5078 -1.04215 16.9968 3.78634Z" fill="#97291E"/>
</g>
<defs>
<clipPath id="clip0_1_4093">
<rect width="289" height="40" fill="white" transform="translate(0.5)"/>
</clipPath>
</defs>
</svg>
